<svg width="22" height="22" viewBox="0 0 22 22" fill="none" xmlns="http://www.w3.org/2000/svg">
<path d="M0.604379 0.604379C0.795699 0.412785 1.02291 0.260789 1.27303 0.157084C1.52314 0.0533795 1.79125 0 2.06201 0C2.33277 0 2.60087 0.0533795 2.85099 0.157084C3.1011 0.260789 3.32832 0.412785 3.51964 0.604379L11.0003 8.08229L18.481 0.604379C18.6724 0.41296 18.8996 0.261118 19.1497 0.157523C19.3998 0.053928 19.6679 0.000608504 19.9386 0.000608498C20.2093 0.000608493 20.4774 0.053928 20.7275 0.157523C20.9776 0.261118 21.2048 0.41296 21.3962 0.604379C21.5876 0.795797 21.7395 1.02304 21.8431 1.27314C21.9467 1.52325 22 1.7913 22 2.06201C22 2.33272 21.9467 2.60077 21.8431 2.85087C21.7395 3.10097 21.5876 3.32822 21.3962 3.51964L13.9183 11.0003L21.3962 18.481C21.7828 18.8676 22 19.3919 22 19.9386C22 20.4853 21.7828 21.0096 21.3962 21.3962C21.0096 21.7828 20.4853 22 19.9386 22C19.3919 22 18.8676 21.7828 18.481 21.3962L11.0003 13.9183L3.51964 21.3962C3.13305 21.7828 2.60873 22 2.06201 22C1.51529 22 0.990966 21.7828 0.604379 21.3962C0.217791 21.0096 0.000608498 20.4853 0.000608498 19.9386C0.000608498 19.3919 0.217791 18.8676 0.604379 18.481L8.08229 11.0003L0.604379 3.51964C0.412785 3.32832 0.260789 3.1011 0.157084 2.85099C0.0533795 2.60087 0 2.33277 0 2.06201C0 1.79125 0.0533795 1.52314 0.157084 1.27303C0.260789 1.02291 0.412785 0.795699 0.604379 0.604379Z" fill="#5D5AC6"/>
</svg>
